<svg width="119" height="46" viewBox="0 0 119 46" fill="none" xmlns="http://www.w3.org/2000/svg">
<rect width="119" height="46" fill="#F5F5F5"/>
<g id="Digital Agency (Go far)" clip-path="url(#clip0_0_1)">
<rect width="1440" height="5534" transform="translate(-135 -21)" fill="white"/>
<g id="Group 1000004355">
<g id="Rectangle 4" filter="url(#filter0_d_0_1)">
<rect x="-135" y="66" width="1440" height="1" fill="#E9E9E9"/>
</g>
<g id="Frame">
<g id="Group 2">
<path id="Vector" d="M17.1278 3.06078L13.5242 7.33789L18.5926 11.5571L22.1962 7.28L17.1278 3.06078Z" fill="#FD8041"/>
<path id="Vector_2" d="M13.4836 40.2783L17.3525 44.3198L22.8185 39.1499L18.9495 35.1084L13.4836 40.2783Z" fill="#FD8041"/>
<path id="Vector_3" d="M41.3194 21.7144C41.3194 19.8998 39.8394 18.4287 38.0138 18.4287C36.1882 18.4287 34.7083 19.8998 34.7083 21.7144V25.0001C34.7083 26.8148 36.1882 28.2859 38.0138 28.2859C39.8394 28.2859 41.3194 26.8148 41.3194 25.0001V21.7144Z" fill="#FD8041"/>
<path id="Vector_4" d="M22.2662 5.68719L18.1167 10.6123L22.7032 14.4303L26.8527 9.50516L22.2662 5.68719Z" fill="#FD8041"/>
<path id="Vector_5" d="M16.9106 35.29L21.3657 39.9438L26.1551 35.4139L21.6999 30.76L16.9106 35.29Z" fill="#FD8041"/>
<path id="Vector_6" d="M15.9134 2.05695C15.9182 2.08543 15.8704 2.12814 15.8036 2.14713C14.863 2.41764 14.4046 2.67395 13.8412 3.23396C13.5786 3.49974 13.1297 4.16895 13.1297 4.29709C13.1297 4.34928 13.1011 4.42523 13.0677 4.4632C12.7764 4.80966 12.7764 6.56568 13.0629 7.13996C13.1011 7.21589 13.1297 7.30132 13.1297 7.33928C13.1297 7.37252 13.1632 7.42471 13.2014 7.45795C13.2396 7.49117 13.273 7.54812 13.273 7.58609C13.273 7.70474 13.76 8.30274 14.6338 9.26143C15.2211 9.90689 15.6556 10.3815 15.8322 10.5903C15.9373 10.709 16.071 10.8608 16.133 10.9225C16.1903 10.989 16.472 11.2975 16.749 11.606C17.0306 11.9192 17.4126 12.3369 17.5988 12.5315C17.7851 12.7308 18.1575 13.1389 18.4297 13.4379C18.6971 13.7369 19.0169 14.0929 19.141 14.221C19.2604 14.3539 19.48 14.6007 19.6233 14.7668C19.7666 14.9377 19.9479 15.1418 20.0293 15.2225C20.2249 15.4265 20.9029 16.1622 21.1512 16.4517C21.2659 16.5798 21.3708 16.6985 21.3852 16.7127C21.4044 16.7269 21.8149 17.173 22.2972 17.7094C22.7795 18.2457 23.1948 18.6919 23.2092 18.706C23.2282 18.7203 23.3094 18.8152 23.3953 18.9196C23.5386 19.1 24.1402 19.7597 24.4076 20.0301C24.4744 20.1014 24.6893 20.3387 24.8755 20.557C25.0616 20.7753 25.2765 21.0078 25.3434 21.0791C25.5487 21.2831 26.2173 22.0188 26.5514 22.408C26.8713 22.7734 27.0289 23.1151 27.0193 23.4236C27.0146 23.6467 26.8713 24.0453 26.7375 24.1972C26.6708 24.2684 26.5371 24.4249 26.4321 24.5437C26.2173 24.7905 25.5391 25.5355 25.329 25.7491C25.2527 25.8298 25.1382 25.9579 25.0856 26.0292C24.9711 26.1669 24.3169 26.8835 23.9491 27.2679C23.8202 27.4008 23.5959 27.6523 23.4479 27.8232C23.2998 27.9988 22.7841 28.573 22.2972 29.1046C21.8101 29.6361 21.3374 30.1534 21.2467 30.2579C21.1559 30.3622 20.9603 30.5758 20.817 30.7325C20.669 30.8939 20.4972 31.0836 20.435 31.1549C20.3682 31.2308 20.2106 31.4017 20.0816 31.5346C19.9527 31.6722 19.7427 31.9095 19.6089 32.066C19.48 32.2228 19.3559 32.3604 19.3417 32.3746C19.2987 32.4078 17.6036 34.2635 17.3362 34.5768C17.2169 34.7097 16.9924 34.9565 16.8349 35.1273C16.6726 35.2982 16.4243 35.5686 16.281 35.7206C16.1378 35.8771 15.88 36.1666 15.7081 36.3613C15.5362 36.5558 15.2975 36.8264 15.1781 36.9545C14.925 37.2251 14.5431 37.6522 14.0704 38.1789C13.6454 38.6488 13.273 39.1377 13.273 39.2231C13.273 39.2611 13.2396 39.3181 13.2014 39.3513C13.1632 39.3845 13.1297 39.4367 13.1297 39.4699C13.1297 39.5079 13.1011 39.5933 13.0629 39.6692C12.9292 39.935 12.8767 40.2435 12.8576 40.8938C12.8337 41.582 12.9197 42.1657 13.0677 42.3461C13.1011 42.384 13.1297 42.4599 13.1297 42.5121C13.1297 42.7257 13.7075 43.4803 14.2088 43.917C14.5049 44.1732 15.2449 44.5386 15.6603 44.6336C15.9468 44.7001 17.2599 44.6953 17.4985 44.6336C17.7851 44.5529 18.1145 44.4295 18.1671 44.3773C18.1909 44.3536 18.2386 44.3346 18.272 44.3346C18.3056 44.3346 18.4965 44.2207 18.6923 44.083C18.8928 43.9501 19.1077 43.8031 19.1698 43.7652C19.227 43.727 19.3511 43.637 19.4371 43.5705C19.9479 43.1861 20.7214 42.626 20.7454 42.626C20.7598 42.626 21.1082 42.3745 21.5285 42.0659C21.9438 41.7622 22.5263 41.3398 22.8224 41.131C23.1185 40.9222 23.4287 40.6943 23.5146 40.6232C23.6006 40.5473 23.6865 40.4903 23.7009 40.4903C23.7201 40.4903 23.9635 40.3194 24.2452 40.1154C24.8993 39.6312 25.1238 39.4699 25.8543 38.9478C26.1789 38.7106 26.8093 38.2596 27.2486 37.9417C27.6925 37.6189 28.2751 37.1965 28.552 37.002C28.829 36.8027 29.3542 36.4229 29.7218 36.1572C30.0894 35.8914 30.4761 35.6161 30.5812 35.545C30.6864 35.4738 30.8343 35.3646 30.9154 35.3077C31.4932 34.8663 31.9897 34.5103 32.0185 34.5103C32.0327 34.5103 32.1187 34.4534 32.2046 34.3774C32.2858 34.3062 32.4053 34.216 32.4624 34.1781C32.5246 34.1401 32.7203 33.9977 32.897 33.8696C33.0736 33.7367 33.2693 33.5992 33.3267 33.561C33.384 33.5231 33.5034 33.4377 33.5941 33.3713C33.68 33.3048 33.9856 33.0866 34.2673 32.8824C34.5539 32.6783 35.1315 32.2607 35.5516 31.957C35.9766 31.6532 36.5018 31.2735 36.7215 31.117C36.9363 30.9602 37.2276 30.7514 37.3565 30.6565C37.4902 30.5569 37.686 30.4192 37.791 30.3481C37.8961 30.2816 38.2781 30.0016 38.6409 29.731C38.999 29.4605 39.3094 29.2423 39.319 29.2423C39.3332 29.2423 39.6818 28.9906 40.0973 28.6775C40.9376 28.0463 41.5583 27.4388 41.9307 26.874C41.9785 26.8076 42.0357 26.7079 42.0596 26.6556C42.0834 26.6034 42.1599 26.48 42.2267 26.3804C42.2935 26.2807 42.3508 26.181 42.3508 26.1573C42.3508 26.1383 42.3794 26.0576 42.4178 25.9817C42.5801 25.6448 42.728 25.2224 42.8045 24.8616C42.8187 24.7905 42.8617 24.7335 42.8999 24.7335C42.962 24.7335 42.9716 24.5483 42.9716 23.4046C42.9716 22.2608 42.962 22.0757 42.8999 22.0757C42.8617 22.0757 42.8187 22.0188 42.8045 21.9428C42.728 21.5869 42.5801 21.1645 42.4178 20.8276C42.3794 20.7515 42.3508 20.6709 42.3508 20.652C42.3508 20.6281 42.2889 20.5143 42.2075 20.4004C42.1312 20.2817 42.0644 20.1773 42.0644 20.1583C42.0644 20.1442 41.9975 20.0397 41.9211 19.9306C41.84 19.8166 41.7396 19.6743 41.6967 19.6078C41.4866 19.2992 40.7752 18.6396 40.0973 18.1318C39.6818 17.8185 39.3332 17.567 39.319 17.567C39.3094 17.567 38.999 17.3487 38.6409 17.0781C38.2781 16.8077 37.8961 16.5276 37.791 16.4612C37.686 16.39 37.538 16.2856 37.4568 16.2286C36.9363 15.8347 36.5736 15.5737 36.5544 15.5737C36.54 15.5737 36.4876 15.5452 36.4446 15.5072C36.3681 15.4455 35.7761 15.0136 35.0695 14.5058C34.9406 14.4156 34.5825 14.1546 34.2817 13.9363C33.9808 13.718 33.6609 13.4854 33.5749 13.4285C33.384 13.2956 33.3411 13.2623 32.9161 12.9491C32.7251 12.8162 32.5246 12.6691 32.4624 12.6311C32.4053 12.5931 32.2858 12.503 32.2046 12.427C32.1187 12.3558 32.0327 12.2989 32.0185 12.2989C31.9897 12.2989 31.4932 11.9429 30.9154 11.5016C30.8343 11.4446 30.6864 11.3402 30.5812 11.269C30.4761 11.1978 30.1371 10.951 29.8269 10.7232C29.5165 10.4907 29.2539 10.3056 29.2395 10.3056C29.2253 10.3056 29.1823 10.2771 29.1488 10.2439C29.1106 10.2154 28.8432 10.0161 28.552 9.80723C28.2607 9.59841 27.6829 9.18075 27.2676 8.88174C26.857 8.58275 26.4845 8.31223 26.4415 8.28849C26.3986 8.26002 26.1455 8.07967 25.8781 7.88509C25.6108 7.69049 25.3434 7.49591 25.2813 7.45795C25.2241 7.41996 25.1 7.3298 25.014 7.26335C24.4506 6.84095 23.7249 6.31889 23.7009 6.31889C23.6865 6.31889 23.6006 6.26195 23.5146 6.186C23.4287 6.11481 23.1185 5.887 22.8271 5.67817C22.5311 5.46935 21.9676 5.0612 21.5763 4.77643C21.1847 4.48692 20.8266 4.23064 20.7788 4.20691C20.6976 4.1642 19.8334 3.53771 19.4371 3.23871C19.3511 3.17227 19.227 3.0821 19.1698 3.04413C19.1077 3.00616 18.8928 2.85903 18.6923 2.72139C18.4965 2.5885 18.3056 2.4746 18.272 2.4746C18.2386 2.4746 18.1909 2.45563 18.1623 2.43189C18.1097 2.37495 17.7517 2.2468 17.4891 2.18035C17.365 2.15188 17.2837 2.10916 17.2837 2.06645C17.2837 2.01424 17.1595 2 16.5915 2C16.0853 2 15.9039 2.01424 15.9134 2.05695ZM17.1501 4.691C17.2361 4.73846 17.4699 4.89507 17.6658 5.04221C17.8615 5.18934 18.1671 5.40764 18.3437 5.52631C18.5204 5.64495 18.6923 5.76835 18.7257 5.79682C18.7925 5.85378 19.4037 6.29517 20.1916 6.85995C20.4828 7.06402 20.7262 7.26335 20.7406 7.30132C20.7692 7.37725 18.5204 9.64112 18.4153 9.64112C18.3819 9.64112 18.2674 9.55095 18.1671 9.43703C18.0667 9.32788 17.7707 9.00039 17.5033 8.71089C17.2407 8.42613 16.9447 8.09866 16.8539 7.99424C16.7634 7.88509 16.5579 7.66202 16.4004 7.49116C16.0662 7.13521 15.6603 6.67485 15.5314 6.50874C15.4789 6.44228 15.4025 6.27143 15.3547 6.11956C15.2593 5.80632 15.2831 5.60699 15.4598 5.23679C15.5935 4.96153 15.9325 4.67677 16.1999 4.60557C16.4338 4.54388 16.9782 4.59134 17.1501 4.691ZM23.5146 9.2472C23.7916 9.45127 24.2118 9.75502 24.4458 9.92113C24.6845 10.092 24.8755 10.2628 24.8755 10.3056C24.8755 10.3862 21.8723 13.3905 21.7911 13.3905C21.7481 13.3905 21.304 12.9254 20.8647 12.4175C20.7502 12.2847 20.5449 12.0616 20.4064 11.9192C20.2631 11.7768 20.1486 11.625 20.1486 11.587C20.1486 11.549 20.7454 10.9226 21.4711 10.2011C22.4357 9.24245 22.8271 8.88174 22.9084 8.88174C22.9704 8.88174 23.2378 9.04311 23.5146 9.2472ZM27.7069 12.2752C28.0411 12.522 28.3229 12.726 28.3419 12.726C28.3563 12.726 28.49 12.821 28.6379 12.9301C29.2635 13.4095 29.698 13.7227 29.7266 13.7227C29.741 13.7227 29.8459 13.7939 29.9558 13.8746C30.0608 13.96 30.1753 14.0454 30.1993 14.0692C30.5812 14.3634 31.0921 14.7194 31.1303 14.7194C31.1543 14.7194 31.1781 14.7431 31.1781 14.7668C31.1781 14.7953 31.2162 14.8333 31.264 14.8475C31.3547 14.8855 32.3957 15.6306 32.6631 15.8584C32.7585 15.9344 32.8492 16.0008 32.8684 16.0008C32.8874 16.0008 33.1118 16.1574 33.3649 16.3472C33.6179 16.5371 33.9139 16.7507 34.019 16.8218C34.3198 17.026 34.6684 17.2823 34.8881 17.4578C35.1125 17.6334 35.1125 17.6904 34.9023 17.923C34.74 18.1032 34.358 18.611 34.315 18.706C34.296 18.7439 34.2387 18.8389 34.1909 18.9196C34.0906 19.0763 33.7804 19.6837 33.6705 19.9399C33.6323 20.0301 33.5701 20.1678 33.5367 20.2389C33.4986 20.315 33.47 20.405 33.47 20.4384C33.47 20.4763 33.4412 20.5759 33.403 20.6613C33.2789 20.951 33.1834 21.2927 33.1834 21.4256C33.1834 21.5015 33.1596 21.6058 33.1262 21.6628C33.0974 21.7198 33.0403 22.1184 33.0115 22.5503C32.9399 23.4332 32.9925 24.686 33.1166 25.0752C33.15 25.1986 33.1834 25.3458 33.1834 25.4074C33.1834 25.5214 33.2885 25.8725 33.403 26.1478C33.4412 26.2332 33.47 26.333 33.47 26.3709C33.47 26.4041 33.4986 26.4943 33.5367 26.5702C33.5701 26.6413 33.6323 26.779 33.6705 26.8692C33.7804 27.1255 34.0906 27.733 34.1909 27.8896C34.2387 27.9655 34.296 28.0652 34.315 28.1031C34.358 28.1981 34.74 28.7059 34.9023 28.8863C35.1125 29.1188 35.1125 29.1758 34.8881 29.3514C34.6684 29.527 34.3198 29.7833 34.019 29.9873C33.9139 30.0585 33.6179 30.272 33.3649 30.462C33.1118 30.6519 32.8874 30.8084 32.8684 30.8084C32.8492 30.8084 32.7585 30.8748 32.6631 30.9509C32.3669 31.2024 31.3214 31.9474 31.2736 31.9474C31.245 31.9474 31.2115 31.9806 31.1972 32.0187C31.1781 32.0567 31.1495 32.0899 31.1255 32.0899C31.0969 32.0899 30.7817 32.313 30.4142 32.5881C30.0464 32.8635 29.7362 33.0866 29.7218 33.0866C29.7026 33.0866 29.5691 33.1814 29.421 33.2906C28.848 33.7273 28.3611 34.0831 28.3419 34.0831C28.3275 34.0831 28.0459 34.2872 27.7117 34.5341C27.3775 34.7809 27.0671 34.9849 27.0289 34.9849C26.9382 34.9849 23.5386 31.62 23.5386 31.5298C23.5386 31.468 23.806 31.1359 24.1592 30.761C24.25 30.666 24.4792 30.4145 24.6607 30.2104C25.2145 29.5886 25.8973 28.8388 25.9307 28.8152C25.945 28.8009 26.05 28.6822 26.1647 28.5541C26.3318 28.3642 26.9764 27.6523 27.1912 27.4197C27.2772 27.3295 27.7451 26.8122 28.0793 26.4373C28.256 26.2475 28.4756 26.0006 28.5711 25.8963C28.6619 25.7918 28.743 25.6827 28.743 25.6543C28.743 25.6257 28.7956 25.5546 28.8624 25.4928C28.9291 25.4312 29.0247 25.284 29.082 25.1654C29.1346 25.0468 29.2109 24.89 29.2491 24.8189C29.2873 24.7525 29.3159 24.648 29.3159 24.591C29.3159 24.539 29.3542 24.4249 29.3972 24.3395C29.464 24.2161 29.4783 24.05 29.4783 23.4046C29.4783 22.7591 29.464 22.593 29.3972 22.4696C29.3542 22.3842 29.3159 22.256 29.3159 22.1801C29.3159 22.1042 29.2825 22.0141 29.2443 21.9809C29.2061 21.9475 29.1727 21.9 29.1727 21.8716C29.1727 21.7719 28.9769 21.4256 28.8624 21.3163C28.7956 21.2547 28.743 21.1834 28.743 21.1598C28.743 21.1171 28.2703 20.5665 28.0507 20.3434C27.9981 20.2912 27.8932 20.1726 27.8166 20.0824C27.7403 19.9922 27.5064 19.7264 27.2916 19.4987C26.7329 18.8864 26.666 18.8152 26.2936 18.3975C26.1073 18.1887 25.945 18.0084 25.9307 17.9941C25.8973 17.9657 25.1715 17.1683 24.6607 16.5988C24.4792 16.3947 24.25 16.1432 24.1592 16.0483C23.806 15.6733 23.5386 15.3411 23.5386 15.2794C23.5386 15.1892 26.9382 11.8243 27.0289 11.8243C27.0719 11.8243 27.3775 12.0284 27.7069 12.2752ZM37.8244 19.5603C38.1492 19.7929 38.4452 20.016 38.4881 20.0587C38.5311 20.0967 38.5789 20.1299 38.5979 20.1299C38.7078 20.1299 39.5958 20.9462 39.7869 21.2214C39.9826 21.4967 40.3455 22.2418 40.3455 22.3653C40.3455 22.4174 40.3789 22.5362 40.4171 22.6309C40.4697 22.7497 40.4887 22.9727 40.4887 23.4046C40.4887 23.8365 40.4697 24.0596 40.4171 24.1782C40.3789 24.2731 40.3455 24.3918 40.3455 24.444C40.3455 24.5294 40.1115 25.0468 39.9492 25.3267C39.6628 25.8156 39.1231 26.3471 38.4833 26.7742C38.426 26.8122 38.1206 27.0305 37.8102 27.2584C37.495 27.491 37.2133 27.676 37.1846 27.676C37.1512 27.676 37.0748 27.6192 37.0175 27.5431C36.7884 27.2774 36.4922 26.893 36.4636 26.8217C36.4446 26.7838 36.3873 26.684 36.3395 26.6081C36.1581 26.3282 35.7617 25.4787 35.7617 25.3599C35.7571 25.3172 35.7283 25.2272 35.6901 25.1606C35.652 25.0942 35.6186 24.9566 35.6186 24.8521C35.6138 24.7478 35.5852 24.5769 35.5469 24.4724C35.4467 24.202 35.4467 22.6073 35.5469 22.3367C35.5852 22.2324 35.6138 22.0615 35.6186 21.957C35.6186 21.8527 35.652 21.7151 35.6901 21.6485C35.7283 21.5821 35.7571 21.492 35.7617 21.4492C35.7617 21.3306 36.1581 20.4811 36.3395 20.201C36.3873 20.1203 36.4446 20.0254 36.4589 19.9874C36.5258 19.8452 37.1226 19.1331 37.1798 19.1331C37.2133 19.1331 37.5046 19.3231 37.8244 19.5603ZM23.3571 34.9233C24.1928 35.7538 24.8755 36.4656 24.8755 36.5037C24.8755 36.5464 24.6845 36.7173 24.4458 36.8882C24.2118 37.0542 23.7916 37.358 23.5146 37.5573C23.2378 37.7661 22.9704 37.9274 22.9084 37.9274C22.8271 37.9274 22.4309 37.5621 21.4759 36.6128C20.7454 35.8867 20.1486 35.2602 20.1486 35.2223C20.1486 35.1842 20.2631 35.0324 20.4064 34.8899C20.5449 34.7477 20.7502 34.5198 20.8647 34.3917C21.304 33.8839 21.7481 33.4188 21.7911 33.4188C21.8149 33.4188 22.5216 34.0974 23.3571 34.9233ZM19.6233 38.3071C20.4542 39.133 20.7598 39.4699 20.7358 39.5174C20.6976 39.5792 19.6901 40.348 19.6425 40.348C19.6281 40.348 19.5947 40.3717 19.5612 40.3953C19.4323 40.5046 18.4823 41.1928 18.2626 41.3398C18.1337 41.4252 18.0048 41.5297 17.9856 41.5629C17.9666 41.6009 17.9236 41.6294 17.8996 41.6294C17.8711 41.6294 17.7278 41.7195 17.5798 41.8287C17.0928 42.1941 17.0164 42.2227 16.5579 42.2227C16.1521 42.2227 16.1426 42.2179 15.8704 42.028C15.3929 41.6958 15.202 41.1737 15.3643 40.6611C15.455 40.3812 15.6747 40.0963 16.4004 39.3181C16.5579 39.1472 16.7634 38.9241 16.8539 38.8149C16.9447 38.7106 17.2407 38.3832 17.5033 38.0983C17.7707 37.8088 18.0667 37.4814 18.1671 37.3674C18.2674 37.2583 18.3771 37.1681 18.4153 37.1681C18.4487 37.1681 18.9931 37.6807 19.6233 38.3071Z" fill="#0E110F"/>
<path id="Vector_7" d="M5.93436 17.2251C5.63356 17.3487 5.31842 17.6334 5.20384 17.8801C5.0797 18.1649 5.07492 18.6633 5.19428 18.8958C5.31842 19.1427 5.39959 19.2375 5.63356 19.4179L5.84364 19.584H12.7049C18.6493 19.584 19.5709 19.5744 19.6473 19.5128C19.6902 19.4749 19.7714 19.4226 19.8287 19.3942C19.8813 19.3704 20.0054 19.2281 20.1056 19.0857C20.2871 18.8294 20.2871 18.8151 20.2871 18.3975C20.2871 17.9799 20.2871 17.9656 20.1056 17.7093C19.972 17.5148 19.8525 17.4103 19.6473 17.306L19.3656 17.1635L12.7526 17.154C6.58372 17.1445 6.12058 17.1492 5.93436 17.2251Z" fill="#0E110F"/>
<path id="Vector_8" d="M0.906805 22.2369C0.582125 22.3413 0.357714 22.5312 0.1906 22.8445C0.0569093 23.0912 0.0569093 23.7177 0.1906 23.9644C0.362489 24.2872 0.5869 24.4724 0.930678 24.5767C1.07869 24.6242 2.59228 24.6385 7.66776 24.6385C14.9683 24.6385 14.5433 24.6574 14.8871 24.3157C15.1736 24.031 15.2786 23.789 15.2786 23.4045C15.2786 23.0201 15.1736 22.7779 14.8871 22.4932C14.5433 22.1515 14.973 22.1704 7.64389 22.1752C2.85011 22.1799 1.03095 22.1942 0.906805 22.2369Z" fill="#0E110F"/>
<path id="Vector_9" d="M5.92962 27.2441C5.71954 27.2822 5.33279 27.6239 5.20865 27.8802C5.07495 28.1554 5.07018 28.6253 5.20387 28.9243C5.32323 29.1901 5.65268 29.4795 5.95826 29.5888C6.16835 29.6647 6.69357 29.6695 12.7956 29.6599L19.4085 29.6456L19.6711 29.4986C19.8478 29.3989 19.9911 29.266 20.1104 29.0951C20.2871 28.8436 20.2871 28.8293 20.2871 28.4117C20.2871 27.9941 20.2871 27.9798 20.1056 27.7235C20.0055 27.5812 19.8812 27.4388 19.8288 27.415C19.7715 27.3865 19.6903 27.3343 19.6473 27.2964C19.571 27.2347 18.6542 27.2252 12.8243 27.2205C9.11912 27.2157 6.01557 27.2252 5.92962 27.2441Z" fill="#0E110F"/>
</g>
<g id="Group 1">
<path id="Vector_10" d="M56.8224 21.3269C55.6457 21.3269 54.5747 21.0771 53.6094 20.5777C52.6574 20.0783 51.8972 19.3423 51.3286 18.3697C50.7733 17.384 50.4956 16.1749 50.4956 14.7423C50.4956 13.3229 50.7799 12.1137 51.3484 11.1149C51.9302 10.1029 52.6971 9.334 53.6491 8.80829C54.6011 8.26943 55.6523 8 56.8026 8C57.7414 8 58.5479 8.17086 59.2223 8.51257C59.8966 8.85429 60.4453 9.242 60.8684 9.67571L59.3413 11.5289C59.0107 11.2397 58.6603 10.9966 58.2901 10.7994C57.9199 10.6023 57.4571 10.5037 56.9018 10.5037C55.8969 10.5037 55.0771 10.8717 54.4424 11.6077C53.8078 12.3437 53.4904 13.3557 53.4904 14.6437C53.4904 15.958 53.7946 16.9831 54.4028 17.7191C55.011 18.4551 55.9167 18.8231 57.1199 18.8231C57.3844 18.8231 57.6422 18.7903 57.8934 18.7246C58.1447 18.6589 58.3496 18.5603 58.5083 18.4289V16.2209H56.3663V13.8551H61.0866V19.7694C60.637 20.2031 60.0354 20.5711 59.2818 20.8734C58.5413 21.1757 57.7216 21.3269 56.8224 21.3269ZM67.7445 21.3269C66.9115 21.3269 66.1248 21.1297 65.3843 20.7354C64.6571 20.328 64.0687 19.7431 63.6192 18.9809C63.1696 18.2054 62.9448 17.2789 62.9448 16.2011C62.9448 15.1103 63.1696 14.1837 63.6192 13.4214C64.0687 12.6591 64.6571 12.0809 65.3843 11.6866C66.1248 11.2791 66.9115 11.0754 67.7445 11.0754C68.5775 11.0754 69.3576 11.2791 70.0848 11.6866C70.812 12.0809 71.4004 12.6591 71.85 13.4214C72.2995 14.1837 72.5243 15.1103 72.5243 16.2011C72.5243 17.2789 72.2995 18.2054 71.85 18.9809C71.4004 19.7431 70.812 20.328 70.0848 20.7354C69.3576 21.1297 68.5775 21.3269 67.7445 21.3269ZM67.7445 18.9809C68.3395 18.9809 68.789 18.7311 69.0932 18.2317C69.3973 17.7191 69.5493 17.0423 69.5493 16.2011C69.5493 15.3469 69.3973 14.67 69.0932 14.1706C68.789 13.6711 68.3395 13.4214 67.7445 13.4214C67.1363 13.4214 66.6801 13.6711 66.376 14.1706C66.0851 14.67 65.9397 15.3469 65.9397 16.2011C65.9397 17.0423 66.0851 17.7191 66.376 18.2317C66.6801 18.7311 67.1363 18.9809 67.7445 18.9809ZM78.7298 21.0903V8.23657H86.8813V10.6811H81.6453V13.658H86.1277V16.1026H81.6453V21.0903H78.7298ZM90.6166 21.3269C89.7175 21.3269 89.0035 21.0443 88.4746 20.4791C87.9457 19.9009 87.6813 19.1977 87.6813 18.3697C87.6813 17.3446 88.1176 16.5429 88.9903 15.9646C89.863 15.3863 91.2711 14.9986 93.2148 14.8014C93.1883 14.3677 93.0561 14.026 92.8181 13.7763C92.5933 13.5134 92.2099 13.382 91.6678 13.382C91.2579 13.382 90.8414 13.4609 90.4183 13.6186C89.9952 13.7763 89.5456 13.9931 89.0696 14.2691L88.0185 12.3569C88.6399 11.9757 89.301 11.6669 90.0018 11.4303C90.7158 11.1937 91.4562 11.0754 92.2231 11.0754C93.4792 11.0754 94.4445 11.4369 95.1188 12.1597C95.7931 12.8826 96.1303 13.9931 96.1303 15.4914V21.0903H93.7503L93.552 20.0849H93.4726C93.0627 20.4529 92.6198 20.7551 92.1438 20.9917C91.681 21.2151 91.172 21.3269 90.6166 21.3269ZM91.6083 19.0794C91.9388 19.0794 92.2231 19.0071 92.4611 18.8626C92.7123 18.7049 92.9636 18.5011 93.2148 18.2514V16.5363C92.1835 16.6677 91.4695 16.878 91.0728 17.1671C90.6761 17.4431 90.4778 17.7717 90.4778 18.1529C90.4778 18.4683 90.577 18.7049 90.7753 18.8626C90.9868 19.0071 91.2645 19.0794 91.6083 19.0794ZM98.5964 21.0903V11.312H100.976L101.175 13.0271H101.254C101.611 12.37 102.041 11.8837 102.543 11.5683C103.046 11.2397 103.548 11.0754 104.051 11.0754C104.328 11.0754 104.56 11.0951 104.745 11.1346C104.93 11.1609 105.089 11.2069 105.221 11.2726L104.745 13.7763C104.573 13.7237 104.401 13.6843 104.229 13.658C104.07 13.6317 103.885 13.6186 103.674 13.6186C103.304 13.6186 102.913 13.7566 102.504 14.0326C102.107 14.2954 101.776 14.7554 101.512 15.4126V21.0903H98.5964Z" fill="#0E110F"/>
<path id="Vector_11" d="M55.6326 38.376C54.7471 38.376 53.9534 38.1493 53.2515 37.6961C52.5604 37.2315 52.0097 36.5686 51.5993 35.7074C51.1998 34.8462 51 33.8094 51 32.5969C51 31.3958 51.2052 30.3646 51.6155 29.5035C52.0259 28.6423 52.5874 27.9794 53.3001 27.5148C54.0128 27.0502 54.8173 26.8179 55.7136 26.8179C56.3616 26.8179 56.9339 26.9595 57.4306 27.2428C57.9274 27.5148 58.3269 27.8321 58.6293 28.1947L57.9004 29.1125C57.6196 28.7952 57.301 28.5403 56.9447 28.3476C56.5883 28.155 56.1834 28.0587 55.7298 28.0587C55.0603 28.0587 54.4718 28.2457 53.9642 28.6196C53.4675 28.9822 53.0787 29.4978 52.798 30.1663C52.528 30.8349 52.393 31.6338 52.393 32.5629C52.393 33.4921 52.528 34.3023 52.798 34.9935C53.068 35.6734 53.4459 36.2003 53.9318 36.5743C54.4286 36.9482 55.0117 37.1352 55.6812 37.1352C56.1888 37.1352 56.6423 37.0219 57.0419 36.7952C57.4414 36.5686 57.8086 36.2627 58.1433 35.8774L58.8885 36.7612C58.4673 37.2712 57.9922 37.6678 57.463 37.951C56.9339 38.2343 56.3238 38.376 55.6326 38.376ZM60.7398 38.172V29.9114H61.8412L61.9546 31.4071H62.0032C62.2732 30.8859 62.6025 30.4723 62.9913 30.1663C63.38 29.8604 63.7958 29.7074 64.2385 29.7074C64.5517 29.7074 64.8325 29.7641 65.0808 29.8774L64.8217 31.1012C64.6921 31.0559 64.5733 31.0219 64.4653 30.9992C64.3573 30.9765 64.2223 30.9652 64.0604 30.9652C63.7256 30.9652 63.3746 31.1069 63.0075 31.3901C62.6511 31.6734 62.338 32.1663 62.068 32.8689V38.172H60.7398ZM69.388 38.376C68.6861 38.376 68.049 38.206 67.4767 37.8661C66.9043 37.5148 66.4508 37.0162 66.116 36.3703C65.7813 35.7244 65.6139 34.9539 65.6139 34.0587C65.6139 33.1522 65.7813 32.376 66.116 31.7301C66.4616 31.0842 66.9043 30.5856 67.4443 30.2343C67.9842 29.8831 68.5511 29.7074 69.1451 29.7074C70.1493 29.7074 70.9214 30.0587 71.4614 30.7612C72.0121 31.4638 72.2875 32.4043 72.2875 33.5828C72.2875 33.7301 72.2821 33.8774 72.2713 34.0247C72.2713 34.1607 72.2605 34.2797 72.2389 34.3816H66.9259C66.9799 35.2542 67.2391 35.951 67.7034 36.4723C68.1786 36.9935 68.7941 37.2542 69.55 37.2542C69.928 37.2542 70.2735 37.1975 70.5867 37.0842C70.9106 36.9595 71.2184 36.8009 71.51 36.6083L71.9797 37.5261C71.645 37.7527 71.2616 37.951 70.8297 38.121C70.4085 38.291 69.928 38.376 69.388 38.376ZM66.9097 33.3788H71.1212C71.1212 32.5403 70.9484 31.9057 70.6029 31.4751C70.2681 31.0332 69.793 30.8122 69.1775 30.8122C68.6267 30.8122 68.13 31.0389 67.6872 31.4921C67.2553 31.9341 66.9961 32.5629 66.9097 33.3788ZM75.8255 38.376C75.1668 38.376 74.6161 38.172 74.1733 37.7641C73.7414 37.3448 73.5254 36.7669 73.5254 36.0304C73.5254 35.1239 73.9088 34.4326 74.6755 33.9567C75.453 33.4695 76.6786 33.1295 78.3524 32.9369C78.3524 32.5856 78.3038 32.2513 78.2067 31.9341C78.1203 31.6168 77.9583 31.3618 77.7207 31.1692C77.4939 30.9652 77.1646 30.8632 76.7326 30.8632C76.2791 30.8632 75.8525 30.9539 75.453 31.1352C75.0534 31.3165 74.6971 31.5205 74.3839 31.7471L73.8656 30.7782C74.2327 30.529 74.6809 30.291 75.21 30.0644C75.75 29.8264 76.3331 29.7074 76.9594 29.7074C77.9205 29.7074 78.617 30.019 79.049 30.6423C79.4809 31.2542 79.6969 32.0757 79.6969 33.1069V38.172H78.5954L78.482 37.1862H78.4334C78.0663 37.5035 77.6613 37.7811 77.2186 38.019C76.7866 38.257 76.3223 38.376 75.8255 38.376ZM76.2143 37.2542C76.5923 37.2542 76.9486 37.1578 77.2834 36.9652C77.6181 36.7726 77.9745 36.5006 78.3524 36.1493V33.8547C77.0458 34.0247 76.1279 34.2797 75.5988 34.6196C75.0804 34.9595 74.8213 35.3958 74.8213 35.9284C74.8213 36.393 74.9562 36.7329 75.2262 36.9482C75.4962 37.1522 75.8255 37.2542 76.2143 37.2542ZM84.4305 38.376C83.5882 38.376 82.9997 38.121 82.6649 37.6111C82.3409 37.1012 82.179 36.4383 82.179 35.6224V31.0502H81.0127V29.9964L82.2438 29.9114L82.4057 27.5998H83.5234V29.9114H85.6453V31.0502H83.5234V35.6394C83.5234 36.1493 83.6098 36.5459 83.7826 36.8292C83.9661 37.1012 84.2847 37.2372 84.7383 37.2372C84.8786 37.2372 85.0298 37.2145 85.1918 37.1692C85.3538 37.1125 85.4996 37.0615 85.6292 37.0162L85.8883 38.07C85.6723 38.1493 85.4348 38.2173 85.1756 38.274C84.9272 38.342 84.6789 38.376 84.4305 38.376ZM87.4254 38.172V29.9114H88.7536V38.172H87.4254ZM88.1057 28.2117C87.8465 28.2117 87.6306 28.1323 87.4578 27.9737C87.2958 27.8037 87.2148 27.5771 87.2148 27.2938C87.2148 27.0219 87.2958 26.8009 87.4578 26.6309C87.6306 26.461 87.8465 26.376 88.1057 26.376C88.3649 26.376 88.5754 26.461 88.7374 26.6309C88.9102 26.8009 88.9966 27.0219 88.9966 27.2938C88.9966 27.5771 88.9102 27.8037 88.7374 27.9737C88.5754 28.1323 88.3649 28.2117 88.1057 28.2117ZM93.1124 38.172L90.2777 29.9114H91.6546L93.1448 34.6026C93.2636 35.0105 93.3823 35.4185 93.5011 35.8264C93.6307 36.2343 93.7549 36.6366 93.8737 37.0332H93.9385C94.0573 36.6366 94.1761 36.2343 94.2948 35.8264C94.4244 35.4185 94.5432 35.0105 94.6512 34.6026L96.1414 29.9114H97.4535L94.6674 38.172H93.1124ZM102.101 38.376C101.399 38.376 100.762 38.206 100.189 37.8661C99.6168 37.5148 99.1633 37.0162 98.8285 36.3703C98.4938 35.7244 98.3264 34.9539 98.3264 34.0587C98.3264 33.1522 98.4938 32.376 98.8285 31.7301C99.1741 31.0842 99.6168 30.5856 100.157 30.2343C100.697 29.8831 101.264 29.7074 101.858 29.7074C102.862 29.7074 103.634 30.0587 104.174 30.7612C104.725 31.4638 105 32.4043 105 33.5828C105 33.7301 104.995 33.8774 104.984 34.0247C104.984 34.1607 104.973 34.2797 104.951 34.3816H99.6384C99.6924 35.2542 99.9516 35.951 100.416 36.4723C100.891 36.9935 101.507 37.2542 102.263 37.2542C102.64 37.2542 102.986 37.1975 103.299 37.0842C103.623 36.9595 103.931 36.8009 104.222 36.6083L104.692 37.5261C104.357 37.7527 103.974 37.951 103.542 38.121C103.121 38.291 102.64 38.376 102.101 38.376ZM99.6222 33.3788H103.834C103.834 32.5403 103.661 31.9057 103.315 31.4751C102.981 31.0332 102.505 30.8122 101.89 30.8122C101.339 30.8122 100.843 31.0389 100.4 31.4921C99.9678 31.9341 99.7086 32.5629 99.6222 33.3788Z" fill="#0E110F"/>
</g>
</g>
</g>
</g>
<defs>
<filter id="filter0_d_0_1" x="-165" y="40" width="1500" height="61" filterUnits="userSpaceOnUse" color-interpolation-filters="sRGB">
<feFlood flood-opacity="0" result="BackgroundImageFix"/>
<feColorMatrix in="SourceAlpha" type="matrix" values="0 0 0 0 0 0 0 0 0 0 0 0 0 0 0 0 0 0 127 0" result="hardAlpha"/>
<feOffset dy="4"/>
<feGaussianBlur stdDeviation="15"/>
<feComposite in2="hardAlpha" operator="out"/>
<feColorMatrix type="matrix" values="0 0 0 0 0 0 0 0 0 0 0 0 0 0 0 0 0 0 0.04 0"/>
<feBlend mode="normal" in2="BackgroundImageFix" result="effect1_dropShadow_0_1"/>
<feBlend mode="normal" in="SourceGraphic" in2="effect1_dropShadow_0_1" result="shape"/>
</filter>
<clipPath id="clip0_0_1">
<rect width="1440" height="5534" fill="white" transform="translate(-135 -21)"/>
</clipPath>
</defs>
</svg>
